<?xml version="1.0" encoding="utf-8"?>
<!-- Generator: Adobe Illustrator 21.0.2, SVG Export Plug-In . SVG Version: 6.00 Build 0)  -->
<svg version="1.1" id="Layer_1" xmlns="http://www.w3.org/2000/svg" xmlns:xlink="http://www.w3.org/1999/xlink" x="0px" y="0px"
	 viewBox="0 0 213 405" style="enable-background:new 0 0 213 405;" xml:space="preserve">
<style type="text/css">
	.st0{fill:none;stroke:#FFFFFF;stroke-width:10;stroke-linecap:round;stroke-miterlimit:10;}
	.st1{fill:#FFFFFF;}
	.st2{fill:none;stroke:#FFFFFF;stroke-width:40;stroke-linecap:round;stroke-miterlimit:10;}
	.st3{fill:none;stroke:#FFFFFF;stroke-width:31;stroke-linecap:round;stroke-miterlimit:10;}
	.st4{fill:#FFFFFF;stroke:#FFFFFF;stroke-miterlimit:10;}
</style>
<g>
	<g>
		<polyline class="st0" points="44,389 43.5,341.5 94.5,341.5 94.5,293.5 147.5,293.5 173.8,267.2 		"/>
		<g>
			<polygon class="st1" points="181,280.4 188.5,252.5 160.6,260 			"/>
		</g>
	</g>
</g>
<line class="st2" x1="78" y1="195" x2="74" y2="106"/>
<path class="st3" d="M121,268v-46.6c0-2.1-1.1-4-3-4.9l-36.8-19.6c-3.5-1.8-7.7,0.4-8.2,4.3L60,311"/>
<circle class="st4" cx="80.5" cy="49.5" r="32.5"/>
<path class="st3" d="M27.5,177.5l-1-52.3c0-0.9,0.6-1.6,1.4-1.8l35.7-21.7c7.9-1.8,16.1,1,21.3,7.2l31.3,37.4
	c0.1,0.1,0.3,0.2,0.4,0.2h41.7"/>
</svg>
